<svg id="Fortune_Coins_Logo" data-name="Fortune Coins Logo" xmlns="http://www.w3.org/2000/svg" xmlns:xlink="http://www.w3.org/1999/xlink" width="200.801" height="51.639" viewBox="0 0 200.801 51.639">
  <defs>
    <clipPath id="clip-path">
      <rect id="Rectangle_1275" data-name="Rectangle 1275" width="200.801" height="51.639" fill="none"/>
    </clipPath>
  </defs>
  <g id="Group_4383" data-name="Group 4383" clip-path="url(#clip-path)">
    <path id="Path_4761" data-name="Path 4761" d="M429.146,142.1a8.523,8.523,0,0,1,3.346.766l-.51,1.56a8.314,8.314,0,0,0-2.807-.567c-2.24,0-3.233,1.957-3.233,3.913s.992,3.913,3.233,3.913a8.314,8.314,0,0,0,2.807-.567l.51,1.56a8.523,8.523,0,0,1-3.346.766c-3.346,0-5.246-2.325-5.246-5.643s1.928-5.7,5.246-5.7" transform="translate(-303.692 -101.804)" fill="#ffd338"/>
    <path id="Path_4762" data-name="Path 4762" d="M488.918,153.386c-3.743,0-5.218-2.552-5.218-5.643s1.475-5.643,5.218-5.643c3.772,0,5.3,2.552,5.3,5.643s-1.531,5.643-5.3,5.643m0-1.73c2.382,0,3.261-1.7,3.261-3.913s-.879-3.913-3.261-3.913c-2.354,0-3.176,1.7-3.176,3.913s.794,3.913,3.176,3.913" transform="translate(-346.534 -101.804)" fill="#ffd338"/>
    <path id="Path_4763" data-name="Path 4763" d="M554.148,127a1.156,1.156,0,0,1,1.276,1.248A1.262,1.262,0,1,1,554.148,127m-.992,4.622h1.985v10.634h-1.985Z" transform="translate(-396.11 -90.986)" fill="#ffd338"/>
    <path id="Path_4764" data-name="Path 4764" d="M597.49,142.34l.255.964h.057a7.216,7.216,0,0,1,3.743-1.3c2.382,0,3.885,1.39,3.885,4.055v6.919h-1.985v-6.522c0-1.843-.766-2.722-2.382-2.722a5.793,5.793,0,0,0-2.978,1.049v8.2H596.1V142.34Z" transform="translate(-427.06 -101.732)" fill="#ffd338"/>
    <path id="Path_4765" data-name="Path 4765" d="M661.837,150.777a6.028,6.028,0,0,0,3.148.907c1.475,0,2.184-.539,2.184-1.5,0-.766-.454-1.134-1.588-1.475l-1.276-.34c-1.843-.539-2.949-1.333-2.949-3.034,0-1.957,1.475-3.233,3.942-3.233a8.8,8.8,0,0,1,3.63.737l-.624,1.616a6.732,6.732,0,0,0-2.921-.652c-1.446,0-2.07.539-2.07,1.475,0,.709.34,1.049,1.56,1.39l1.248.34c1.843.454,3.006,1.418,3.006,3.148,0,1.957-1.5,3.233-4,3.233a7.325,7.325,0,0,1-4.027-1.021Z" transform="translate(-473.627 -101.804)" fill="#ffd338"/>
    <path id="Path_4766" data-name="Path 4766" d="M102.986,30.019a16.433,16.433,0,0,0-6.721-5.955,1.272,1.272,0,0,0-1.7.567v.028a1.272,1.272,0,0,0,.567,1.7h.028a13.93,13.93,0,0,1,7.883,12.534,14.141,14.141,0,0,1-1.616,6.522,1.285,1.285,0,0,0,.51,1.7,1.415,1.415,0,0,0,.6.142,1.226,1.226,0,0,0,1.106-.681,16.624,16.624,0,0,0,1.928-7.713,16.173,16.173,0,0,0-2.581-8.848" transform="translate(-67.652 -17.144)" fill="#ffd338"/>
    <path id="Path_4767" data-name="Path 4767" d="M79.361,18.7h-.085a1.276,1.276,0,1,0,0,2.552h.085a1.276,1.276,0,1,0,0-2.552" transform="translate(-55.881 -13.397)" fill="#ffd338"/>
    <path id="Path_4768" data-name="Path 4768" d="M28.307,68.1A13.93,13.93,0,0,1,20.424,55.57a14.141,14.141,0,0,1,1.616-6.522,1.256,1.256,0,1,0-2.212-1.191,16.4,16.4,0,0,0,.681,16.589A16.433,16.433,0,0,0,27.23,70.4a1.229,1.229,0,0,0,.539.113,1.263,1.263,0,0,0,1.134-.709,1.309,1.309,0,0,0-.6-1.7" transform="translate(-12.824 -33.82)" fill="#ffd338"/>
    <path id="Path_4769" data-name="Path 4769" d="M65.661,125.8h-.085a1.262,1.262,0,0,0-.028,2.524h.085a1.265,1.265,0,0,0,1.276-1.248,1.23,1.23,0,0,0-1.248-1.276" transform="translate(-46.066 -90.126)" fill="#ffd338"/>
    <path id="Path_4770" data-name="Path 4770" d="M21.637,2.836a18.787,18.787,0,1,1-18.8,18.773,18.783,18.783,0,0,1,18.8-18.773m0-2.836A21.637,21.637,0,1,0,43.274,21.665v-.028A21.633,21.633,0,0,0,21.637,0" fill="#ffd338"/>
    <path id="Path_4771" data-name="Path 4771" d="M256.454,46.558a9.673,9.673,0,0,0-3.431-2.269,12.044,12.044,0,0,0-4.481-.794,11.853,11.853,0,0,0-4.424.794,9.366,9.366,0,0,0-3.4,2.24,9.48,9.48,0,0,0-2.155,3.488,13.57,13.57,0,0,0-.766,4.509,12.444,12.444,0,0,0,.737,4.452,9.939,9.939,0,0,0,2.184,3.488,9.818,9.818,0,0,0,3.4,2.269,11.853,11.853,0,0,0,4.424.794,12.146,12.146,0,0,0,4.481-.794,9.819,9.819,0,0,0,3.4-2.269,10.055,10.055,0,0,0,2.184-3.516,13.406,13.406,0,0,0,.766-4.481,12.7,12.7,0,0,0-.737-4.481,10.242,10.242,0,0,0-2.184-3.431m-3.97,13.1a4.693,4.693,0,0,1-3.913,1.843,4.774,4.774,0,0,1-2.836-.851,5.247,5.247,0,0,1-1.843-2.439,9.779,9.779,0,0,1-.652-3.715,9.923,9.923,0,0,1,.652-3.743,5.3,5.3,0,0,1,1.872-2.439,5.125,5.125,0,0,1,6.721,1.021A8.158,8.158,0,0,1,253.93,54.5a8.158,8.158,0,0,1-1.446,5.161" transform="translate(-170.36 -31.16)" fill="#fff"/>
    <path id="Path_4772" data-name="Path 4772" d="M346.371,44.451a6.8,6.8,0,0,0-3.318-.851,4.116,4.116,0,0,0-2.722.851,9.1,9.1,0,0,0-1.985,2.524,4.631,4.631,0,0,0-.652-2.524,2.219,2.219,0,0,0-1.957-.851q-2.637,0-2.637,3.658V62.344a3.571,3.571,0,0,0,.766,2.467,2.473,2.473,0,0,0,1.928.822,2.573,2.573,0,0,0,1.957-.822,3.475,3.475,0,0,0,.766-2.467V57.807c0-1.616.057-3.006.17-4.14a12.682,12.682,0,0,1,.567-2.921,3.949,3.949,0,0,1,1.163-1.843,3,3,0,0,1,1.957-.624,7.008,7.008,0,0,1,2.013.369,7.714,7.714,0,0,0,1.446.369,2.087,2.087,0,0,0,1.475-.652,2.124,2.124,0,0,0,.681-1.645,2.529,2.529,0,0,0-1.616-2.269" transform="translate(-238.641 -31.236)" fill="#fff"/>
    <path id="Path_4773" data-name="Path 4773" d="M407.125,42.613a9.837,9.837,0,0,0-1.276.17,9.641,9.641,0,0,1-1.3.17,1.62,1.62,0,0,1-1.248-.425,2.051,2.051,0,0,1-.482-1.106q-.085-.978-.085-1.957V29.483h1.021a5.671,5.671,0,0,0,2.467-.425,1.573,1.573,0,0,0,.851-1.531,1.712,1.712,0,0,0-.6-1.39,2.5,2.5,0,0,0-1.758-.539H402.73V21.912a10.311,10.311,0,0,0-.142-2.1,2.139,2.139,0,0,0-.709-1.248,2.712,2.712,0,0,0-1.872-.766,2.741,2.741,0,0,0-1.333.34,2.776,2.776,0,0,0-.907.907,3.354,3.354,0,0,0-.4,1.276,14.508,14.508,0,0,0-.057,2.042v3.261h-.6a2.782,2.782,0,0,0-1.872.539,1.863,1.863,0,0,0-.028,2.807,2.645,2.645,0,0,0,1.787.567h.709V39.947a17.329,17.329,0,0,0,.4,4.027,4.024,4.024,0,0,0,1.73,2.354,7.135,7.135,0,0,0,3.857.851,9.888,9.888,0,0,0,4.112-.681,2.144,2.144,0,0,0,1.418-2.013,1.756,1.756,0,0,0-.539-1.3,1.638,1.638,0,0,0-1.163-.567" transform="translate(-282.408 -12.752)" fill="#fff"/>
    <path id="Path_4774" data-name="Path 4774" d="M473.246,43.6a2.573,2.573,0,0,0-1.957.822,3.416,3.416,0,0,0-.766,2.41v6.579a16.943,16.943,0,0,1-.454,5.048,4.794,4.794,0,0,1-1.758,2.127,4.433,4.433,0,0,1-2.581.822,3.2,3.2,0,0,1-2.24-.737,3.979,3.979,0,0,1-1.134-2.013,13.268,13.268,0,0,1-.312-3.176V46.828a3.369,3.369,0,0,0-.766-2.41,2.634,2.634,0,0,0-1.985-.822,2.548,2.548,0,0,0-1.957.794,3.58,3.58,0,0,0-.737,2.439V57.575a9.89,9.89,0,0,0,1.021,4.963,5.92,5.92,0,0,0,2.41,2.24,7.546,7.546,0,0,0,3.516.822,9.029,9.029,0,0,0,2.892-.4,7.523,7.523,0,0,0,2.354-1.248,11.757,11.757,0,0,0,2.042-2.07v.681a3.306,3.306,0,0,0,.737,2.269,2.276,2.276,0,0,0,1.843.794,2.322,2.322,0,0,0,1.815-.766,3.309,3.309,0,0,0,.709-2.325V46.828a3.58,3.58,0,0,0-.737-2.439,2.548,2.548,0,0,0-1.957-.794" transform="translate(-327.119 -31.231)" fill="#fff"/>
    <path id="Path_4775" data-name="Path 4775" d="M565.961,47.168a5.824,5.824,0,0,0-2.524-2.637,7.808,7.808,0,0,0-3.828-.936,8.5,8.5,0,0,0-3.913.879,9.439,9.439,0,0,0-3.119,2.779V46.6a3.647,3.647,0,0,0-.34-1.645,2.428,2.428,0,0,0-.908-1.021,2.634,2.634,0,0,0-1.3-.34,2.341,2.341,0,0,0-1.843.766,3.4,3.4,0,0,0-.681,2.325V62.34a3.542,3.542,0,0,0,.766,2.439,2.407,2.407,0,0,0,1.928.851,2.634,2.634,0,0,0,1.985-.822,3.475,3.475,0,0,0,.766-2.467V55.534a17.571,17.571,0,0,1,.4-4.537,5.063,5.063,0,0,1,1.758-2.382,4.434,4.434,0,0,1,2.637-.851,3.087,3.087,0,0,1,2.978,1.418,9.263,9.263,0,0,1,.737,4.112v9.018a3.542,3.542,0,0,0,.766,2.439,2.674,2.674,0,0,0,3.885.028,3.566,3.566,0,0,0,.737-2.467V52.244a20.577,20.577,0,0,0-.17-2.949,5.716,5.716,0,0,0-.709-2.127" transform="translate(-392.242 -31.231)" fill="#fff"/>
    <path id="Path_4776" data-name="Path 4776" d="M655.26,58.553A1.935,1.935,0,0,0,653.9,58.1a1.664,1.664,0,0,0-1.191.369c-.681.624-1.219,1.134-1.645,1.5a12.732,12.732,0,0,1-1.39,1.049,5.182,5.182,0,0,1-1.56.709,6.3,6.3,0,0,1-1.787.227,5.043,5.043,0,0,1-2.637-.709,5.173,5.173,0,0,1-1.928-2.127,6.872,6.872,0,0,1-.737-3.261H651.63a7.327,7.327,0,0,0,3.289-.6c.794-.4,1.163-1.276,1.163-2.637a9,9,0,0,0-1.134-4.339,8.868,8.868,0,0,0-3.4-3.46A10.61,10.61,0,0,0,646.1,43.5a11.9,11.9,0,0,0-4.452.794,9.029,9.029,0,0,0-3.375,2.24,9.617,9.617,0,0,0-2.07,3.516,13.3,13.3,0,0,0-.709,4.452,11.1,11.1,0,0,0,2.892,8.082c1.928,1.985,4.651,2.978,8.11,2.978a12.168,12.168,0,0,0,4.027-.6,10.19,10.19,0,0,0,2.921-1.5,6.927,6.927,0,0,0,1.73-1.9,3.392,3.392,0,0,0,.567-1.73,1.584,1.584,0,0,0-.482-1.276m-12.676-9.925a4.236,4.236,0,0,1,3.318-1.39,4.515,4.515,0,0,1,3.431,1.39,6.53,6.53,0,0,1,1.5,4.169H641a7.215,7.215,0,0,1,1.588-4.169" transform="translate(-455.282 -31.16)" fill="#fff"/>
    <path id="Path_4777" data-name="Path 4777" d="M199.482,67.246l-4.14-3.289a.217.217,0,0,0-.142-.057V77.455a3.571,3.571,0,0,0,.766,2.467,2.407,2.407,0,0,0,1.928.851,2.521,2.521,0,0,0,1.985-.851,3.571,3.571,0,0,0,.766-2.467V66.934l-.709.369a.428.428,0,0,1-.454-.057" transform="translate(-139.846 -45.779)" fill="#fff"/>
    <path id="Path_4778" data-name="Path 4778" d="M196.107,20.643l3.431,3.148a.344.344,0,0,0,.425.057l.652-.34V20.36a5.671,5.671,0,0,1,.425-2.467c.284-.567.907-.851,1.9-.851a10.125,10.125,0,0,1,1.3.113,7.33,7.33,0,0,0,1.078.113,1.511,1.511,0,0,0,1.163-.539,1.844,1.844,0,0,0,.51-1.3c0-1.56-1.588-2.325-4.736-2.325a10.673,10.673,0,0,0-4.225.681,4.113,4.113,0,0,0-2.184,2.184,10.464,10.464,0,0,0-.652,4.027V20.9l.425-.312a.5.5,0,0,1,.482.057" transform="translate(-139.846 -9.385)" fill="#fff"/>
    <path id="Path_4779" data-name="Path 4779" d="M189.411,43.531l-5.445,2.779-.652.34a.344.344,0,0,1-.425-.057l-3.431-3.148a.386.386,0,0,0-.482-.028l-.425.312-6.437,4.622a.4.4,0,0,0-.085.539.369.369,0,0,0,.369.142l5.983-1.021h.17a.217.217,0,0,1,.142.057l4.14,3.289a.385.385,0,0,0,.425.028l.709-.369,5.785-2.949a.393.393,0,0,0,.2-.34V43.843a.385.385,0,0,0-.425-.34.17.17,0,0,0-.113.028" transform="translate(-123.196 -31.054)" fill="#ffd338"/>
    <path id="Path_4780" data-name="Path 4780" d="M66.363,80.439l-2.978-2.382c-.028-.028-.057-.028-.085-.057v7.657a2.511,2.511,0,0,0,.539,1.758,1.891,1.891,0,0,0,2.807,0,2.5,2.5,0,0,0,.539-1.758V80.184l-.51.255a.306.306,0,0,1-.312,0" transform="translate(-45.35 -55.881)" fill="#fff"/>
    <path id="Path_4781" data-name="Path 4781" d="M63.968,46.588l2.467,2.269a.309.309,0,0,0,.312.057l.482-.255V46.446a4.326,4.326,0,0,1,.312-1.787c.2-.425.652-.624,1.361-.624a5.221,5.221,0,0,1,.936.085,3.587,3.587,0,0,0,.794.085,1.149,1.149,0,0,0,.851-.4,1.437,1.437,0,0,0,.369-.936c0-1.106-1.134-1.673-3.431-1.673a7.978,7.978,0,0,0-3.034.482,2.948,2.948,0,0,0-1.56,1.588,7.338,7.338,0,0,0-.454,2.921v.6l.312-.227a.22.22,0,0,1,.284.028" transform="translate(-45.394 -29.517)" fill="#fff"/>
    <path id="Path_4782" data-name="Path 4782" d="M59.023,63.114,55.11,65.1l-.482.255a.259.259,0,0,1-.312-.057l-2.467-2.269a.3.3,0,0,0-.34-.028l-.312.255L46.546,66.6a.276.276,0,0,0-.028.4.235.235,0,0,0,.227.085l4.31-.737h.113c.028,0,.057.028.085.057l2.978,2.382a.261.261,0,0,0,.284.028l.51-.255,4.169-2.127a.3.3,0,0,0,.142-.255V63.369a.256.256,0,0,0-.312-.255c.085-.028.028-.028,0,0" transform="translate(-33.275 -45.106)" fill="#ffd338"/>
  </g>
</svg>
